<?xml version='1.0' encoding='utf-8'?>
<svg xmlns="http://www.w3.org/2000/svg" version="1.1" width="1080px" height="2132px" viewBox="0 0 1080 2132"> <g id="layer1"> <g style="fill:rgb(255,255,255); fill-opacity:1.0; stroke-linejoin: miter"> <path d="M177.999,660.7331C177.92847,660.7331,177.86082,660.7611,177.81096,660.811C177.7611,660.86084,177.73308,660.9285,177.73308,660.999L177.73409,1204.0C177.73409,1204.1469,177.85313,1204.2659,178.0,1204.2659L720.001,1204.2668C720.0715,1204.2668,720.13916,1204.2389,720.189,1204.189C720.2389,1204.139,720.2669,1204.0715,720.2669,1204.001L720.2659,661.0C720.2659,660.85315,720.14685,660.7341,720.0,660.7341L177.999,660.7331 Z"/> </g> <g style="fill:rgb(0,0,0); fill-opacity:0.2901961; stroke-linejoin: miter"> <path d="M529.3201,898.7355L529.3201,898.73645C528.90686,900.1256,528.47015,901.4911,528.0021,902.8574L524.00226,901.4873C524.4511,900.177,524.87115,898.8639,525.2674,897.53076 Z"/> </g> <g style="fill:rgb(0,0,0); fill-opacity:0.2901961; stroke-linejoin: miter"> <path d="M506.14154,939.82495L506.14154,939.8259C505.17114,940.8939,504.18427,941.938,503.17126,942.96704L500.1582,940.00085C501.13025,939.0134,502.0796,938.0093,503.0108,936.9833 Z"/> </g> <g style="fill:rgb(0,0,0); fill-opacity:0.2901961; stroke-linejoin: miter"> <path d="M467.48868,966.8661L467.48868,966.8672C466.1556,967.40784,464.79962,967.9269,463.43942,968.4154L462.01013,964.43616C463.31738,963.9667,464.61578,963.4697,465.89688,962.9491 Z"/> </g> <g style="fill:rgb(0,0,0); fill-opacity:0.2901961; stroke-linejoin: miter"> <path d="M420.90134,974.45215L420.90134,974.45325C419.44876,974.3634,418.0099,974.24585,416.5727,974.09875L417.0028,969.8927C418.38385,970.0338,419.76328,970.1467,421.1593,970.23206 Z"/> </g> <g style="fill:rgb(0,0,0); fill-opacity:0.2901961; stroke-linejoin: miter"> <path d="M408.02164,972.87024L408.02164,972.8712C399.3945,971.26843,391.11963,968.61914,383.34042,965.0552L385.10144,961.2112C392.56958,964.6327,400.51248,967.1758,408.79346,968.71326 Z"/> </g> <g style="fill:rgb(0,0,0); fill-opacity:0.2901961; stroke-linejoin: miter"> <path d="M375.63226,961.1355L375.63226,961.1366C374.37823,960.4321,373.13,959.698,371.9078,958.94556L374.1244,955.3451C375.30014,956.069,376.49457,956.77136,377.70074,957.4479 Z"/> </g> <g style="fill:rgb(0,0,0); fill-opacity:0.2901961; stroke-linejoin: miter"> <path d="M340.61325,929.5244L340.6099,929.51965L340.60712,929.51575L340.61044,929.5205C339.78302,928.3452,338.97723,927.15,338.19678,925.93994L341.74994,923.64844C342.49954,924.81067,343.27283,925.95764,344.06754,927.0864L344.07086,927.09106L344.07364,927.0951 Z"/> </g> <g style="fill:rgb(0,0,0); fill-opacity:0.2901961; stroke-linejoin: miter"> <path d="M322.73892,885.871L322.73892,885.87195C322.50476,884.4514,322.29913,883.026,322.12155,881.58716L326.3177,881.0691C326.48825,882.4508,326.6858,883.8198,326.91058,885.18286 Z"/> </g> <g style="fill:rgb(0,0,0); fill-opacity:0.2901961; stroke-linejoin: miter"> <path d="M325.52563,838.74255L325.52563,838.74365C325.92975,837.355,326.3626,835.9752,326.8214,834.6112L330.82886,835.959C330.3887,837.2677,329.9727,838.5935,329.58502,839.9248 Z"/> </g> <g style="fill:rgb(0,0,0); fill-opacity:0.2901961; stroke-linejoin: miter"> <path d="M348.47775,797.5243L348.47775,797.52527C349.4421,796.4501,350.42374,795.40015,351.4307,794.36597L354.46002,797.3154C353.49265,798.30896,352.55032,799.3168,351.62393,800.34875 Z"/> </g> <g style="fill:rgb(0,0,0); fill-opacity:0.2901961; stroke-linejoin: miter"> <path d="M386.9809,770.2705L387.00253,770.2617L387.007,770.26L386.98535,770.2688C388.31528,769.7196,389.66202,769.1958,391.019,768.6997L392.4706,772.67065C391.1716,773.1455,389.87158,773.65125,388.5989,774.17676L388.57727,774.18555L388.5728,774.1874 Z"/> </g> <g style="fill:rgb(0,0,0); fill-opacity:0.2901961; stroke-linejoin: miter"> <path d="M433.53082,762.4286L433.53082,762.4297C434.98645,762.50964,436.4139,762.6185,437.85443,762.7578L437.4477,766.9662C436.06335,766.8323,434.69485,766.728,433.29575,766.65015 Z"/> </g> <g style="fill:rgb(0,0,0); fill-opacity:0.2901961; stroke-linejoin: miter"> <path d="M478.8676,775.494L478.8676,775.4951C480.12885,776.1924,481.3756,776.91626,482.60504,777.66394L480.40826,781.2765C479.2271,780.5582,478.03094,779.86365,476.8196,779.193 Z"/> </g> <g style="fill:rgb(0,0,0); fill-opacity:0.2901961; stroke-linejoin: miter"> <path d="M514.0603,806.91296L514.0603,806.91406C514.8948,808.08435,515.70825,809.2765,516.4959,810.48303L512.95544,812.7943C512.196,811.6311,511.42126,810.4956,510.6167,809.3661 Z"/> </g> <g style="fill:rgb(0,0,0); fill-opacity:0.2901961; stroke-linejoin: miter"> <path d="M532.1753,850.464L532.1753,850.4651C532.418,851.8865,532.6312,853.30945,532.81726,854.7511L528.62396,855.292C528.4457,853.91016,528.2401,852.5382,528.00757,851.1753 Z"/> </g> <g style="fill:rgb(255,184,156); fill-opacity:1.0; stroke-linejoin: miter"> <path d="M486.56537,1072.9073L486.56537,1072.9073Q506.43146,1072.0879,526.29767,1071.2676Q518.6997,1082.7719,511.10205,1094.2761Q489.01,1095.055,466.9181,1095.8335L486.56537,1072.9073"/> </g> <g style="fill:rgb(0,0,0); fill-opacity:1.0; stroke-linejoin: miter"> <path d="M406.70728,1028.9827L414.89453,1028.1611Q443.55518,1025.1692,464.86377,1023.6398Q489.89014,1022.0487,492.6902,1022.1686Q500.5868,1021.953,506.64575,1022.1024Q521.0934,1022.3512,530.74475,1024.4381Q538.299,1026.0792,542.8836,1029.9918Q545.52625,1031.933,546.5212,1037.8129Q546.68353,1041.2792,544.7773,1045.2844Q538.6356,1056.2477,528.52356,1062.8622Q518.7135,1069.8005,506.1219,1074.3142Q499.82648,1076.5708,492.83545,1078.2205Q485.844,1079.8715,478.1582,1080.9153L470.29776,1081.8081Q467.82077,1082.304,448.39075,1083.2051Q440.20853,1083.4722,430.85168,1083.4764Q412.1387,1083.4849,388.72986,1082.4386L406.70728,1028.9827"/> </g> <g style="fill:rgb(0,0,0); fill-opacity:1.0; stroke-linejoin: miter"> <path d="M412.02448,1031.4374L412.02448,1031.4387Q491.5973,1031.8796,522.79425,1037.389Q550.1434,1042.0603,551.63715,1053.2349Q552.14465,1056.8612,550.03534,1060.7916Q547.92615,1064.7218,543.4193,1068.6969L538.3678,1072.6184Q527.0112,1080.549,507.81732,1086.5885Q500.71704,1089.136,480.65094,1092.8816Q468.97003,1094.8383,456.85568,1095.7404Q432.09937,1097.4888,412.8284,1094.6873Q397.9957,1092.598,387.24536,1087.5951Q385.21643,1087.0637,377.80228,1081.5951L372.96088,1076.6578Q368.73254,1071.3695,366.51083,1064.9313L364.67938,1058.2694Q363.2937,1051.3516,363.24588,1043.6675Q362.72845,1032.3967,367.46622,1002.6907L412.02448,1031.4374"/> </g> <g style="fill:rgb(255,184,156); fill-opacity:1.0; stroke-linejoin: miter"> <path d="M422.1665,850.49036L420.25134,850.52124L418.33597,850.551C415.30737,860.77185,412.27884,870.9928,409.25098,881.21436C413.84973,883.55396,418.4493,885.89343,423.04825,888.2329C428.23398,887.5834,428.47183,888.8915,433.65884,888.2401L422.1665,850.49036 Z"/> </g> <g style="fill:rgb(0,0,0); fill-opacity:1.0; stroke-linejoin: miter"> <path d="M462.01752,799.35974C456.60242,796.67126,451.60605,795.953,447.03125,797.2042C446.42877,797.2051,443.1495,799.0198,436.6205,801.02014C429.42844,803.22473,425.30716,803.75684,424.7016,804.28455C421.84314,805.58044,419.46643,807.5829,417.74915,810.4053C412.16238,819.5824,409.3927,831.30383,409.31024,845.4614C409.29248,848.46533,412.6436,853.07947,412.91428,856.365L425.48587,861.41785C442.3842,857.7377,446.49255,858.4728,453.36438,854.39355C456.8107,852.349,460.2692,849.7551,463.76892,846.5751C465.77884,844.74866,470.0269,840.1693,476.4971,832.78613C477.49927,831.64124,478.5777,830.71155,479.58026,829.8496C481.93,827.82996,484.66815,826.454,487.82935,825.7605C488.13245,821.7991,486.23456,817.81616,482.12946,813.8154C475.8922,807.73645,469.1972,802.9264,462.05322,799.3778 Z"/> </g> <g style="fill:rgb(255,184,156); fill-opacity:1.0; stroke-linejoin: miter"> <path d="M479.42877,828.34204L479.42877,828.3434L479.42993,828.34265C472.2203,827.6869,467.94205,828.25305,466.2713,829.69495C464.86813,830.9059,463.84808,833.3905,463.501,837.5198L456.37793,841.0166L452.51468,849.9647L447.72604,849.1139C447.42404,843.46655,446.89066,840.0154,446.23846,838.70496C445.43414,837.08887,444.07977,836.5,442.05484,836.9646C439.61298,837.5249,437.778,838.6455,436.4307,840.24817C435.5592,841.28455,434.84323,843.6688,434.40283,847.50745C434.13794,848.1654,433.5724,848.6852,432.89972,849.3052C431.81064,850.3091,424.015,863.24304,415.6679,856.8933L434.2444,890.65784L440.21378,880.885L454.73572,885.4752C459.9445,888.448,463.16965,889.36597,464.6558,888.72327C466.15082,888.0769,467.05902,885.11475,467.18982,879.32153C469.49936,877.20764,470.63974,875.68286,470.81705,874.77954C471.0249,873.72144,470.46573,872.4061,468.9366,870.7848C471.38373,871.2351,472.85178,871.02246,473.54004,870.32605C474.25336,869.6044,474.83215,867.724,475.0923,864.4813C479.3062,865.3728,481.3681,865.1798,481.5428,863.9264C481.62842,863.312,481.5464,862.3003,481.03888,860.8356L476.96878,850.6179L477.40512,848.0829C478.7941,846.2544,479.52527,844.2062,479.76276,841.95337C479.9901,839.7958,479.93488,835.27966,479.43176,828.38684L479.42877,828.34204L479.42877,828.3434 Z"/> </g> <g style="fill:rgb(252,38,203); fill-opacity:1.0; stroke-linejoin: miter"> <path d="M501.4052,881.25854L501.4049,881.2606L501.4052,881.25854L501.4049,881.2606"/> </g> <g style="fill:rgb(55,157,255); fill-opacity:1.0; stroke-linejoin: miter"> <path d="M437.9419,1023.30676L437.9419,1023.3081L437.9419,1023.3093L438.166,1024.7906C440.55917,1035.6764,435.88065,1045.7777,425.50992,1056.4893C417.31528,1064.953,361.11838,1064.8816,358.8199,1044.4185C355.05173,1010.871,354.3527,943.00146,366.71942,913.65344C374.9318,894.1644,390.07275,876.49084,414.1848,862.2384L431.4002,880.23047L438.3881,886.4165L431.50232,897.9398C436.11624,905.10767,437.95004,912.4429,437.42664,919.979C437.3763,920.7029,437.1878,923.5537,435.604,928.29553C431.29208,941.2058,428.14203,950.2533,426.92398,955.70984C425.80484,960.72375,425.394,965.78613,425.4305,970.91406C425.4586,974.87573,426.43307,980.95984,427.895,989.3153C428.16394,990.85266,431.25217,1002.2058,437.9419,1023.30676L437.9419,1023.3081L437.9419,1023.30676 Z"/> </g> <g style="fill:rgb(252,38,203); fill-opacity:1.0; stroke-linejoin: miter"> <path d="M410.16452,819.4282L410.16492,819.4304L410.16452,819.4282L410.1643,819.42993"/> </g> <g style="fill:rgb(252,38,203); fill-opacity:1.0; stroke-linejoin: miter"> <path d="M458.12823,921.5156L458.12823,921.51733L458.12823,921.5156L458.12823,921.51733"/> </g> <g style="fill:rgb(0,0,0); fill-opacity:1.0; stroke-linejoin: miter"> <path d="M474.0729,849.4192L474.0729,849.41956Q472.44287,849.10535,471.73837,848.7886Q471.0149,848.5017,469.78766,847.60547L474.0729,849.4192"/> </g> <g style="fill:rgb(0,0,0); fill-opacity:1.0; stroke-linejoin: miter"> <path d="M475.05472,847.4579L474.79608,847.26465Q473.11343,845.98047,471.95547,845.421Q470.9257,844.90027,468.87805,844.50854L475.05472,847.4579"/> </g> <g style="fill:rgb(252,38,203); fill-opacity:1.0; stroke-linejoin: miter"> <path d="M463.48364,831.8689L463.48364,831.86914L463.48364,831.8689L463.48364,831.86914"/> </g> <g style="fill:rgb(255,184,156); fill-opacity:1.0; stroke-linejoin: miter"> <path d="M507.99487,1070.4875L507.8329,1070.5083Q507.1936,1070.5889,506.6927,1070.6404L507.98145,1070.4862L507.99487,1070.4875"/> </g> <g style="fill:rgb(255,184,156); fill-opacity:1.0; stroke-linejoin: miter"> <path d="M470.15033,1028.6003L470.15033,1028.6003L444.77704,1021.83765Q443.28772,1026.579,441.7985,1031.3202L470.15033,1028.6003"/> </g> <g style="fill:rgb(255,184,156); fill-opacity:1.0; stroke-linejoin: miter"> <path d="M517.6873,1009.6172L517.6873,1009.61865Q542.23175,1009.9215,552.15967,1011.00684Q556.42804,1011.51514,558.5076,1012.25867Q561.5252,1013.4082,561.3177,1014.4922Q561.4269,1014.7053,560.82367,1015.37915Q560.2743,1015.8362,559.04333,1016.0824L551.4053,1017.30786Q550.81537,1017.3783,545.65283,1018.4236Q539.5593,1019.64624,518.4875,1024.6675L517.6873,1009.6172"/> </g> <g style="fill:rgb(255,184,156); fill-opacity:1.0; stroke-linejoin: miter"> <path d="M525.4776,1015.89685L522.0532,1013.0757L518.62866,1010.2544Q531.73444,1004.0593,544.84015,997.8644Q545.5869,1000.13135,546.33356,1002.3983Q542.9219,1003.7894,539.51025,1005.1804L525.4776,1015.89685"/> </g> <g style="fill:rgb(255,184,156); fill-opacity:1.0; stroke-linejoin: miter"> <path d="M553.1142,1011.85596L545.68286,1002.01135Q544.0475,1002.79553,543.6575,1003.37585Q543.1189,1004.124,543.3128,1005.27893Q543.43274,1005.8386,543.7102,1006.515Q544.0572,1007.3605,544.7215,1008.5332Q545.34216,1009.7268,548.34393,1014.17004L553.1142,1011.85596"/> </g> <g style="fill:rgb(55,157,255); fill-opacity:1.0; stroke-linejoin: miter"> <path d="M423.29312,912.0536L423.29312,912.05493L423.29312,912.0563L423.29312,912.0576L423.29312,912.0591L415.70493,912.8452L418.59113,909.8967C409.03845,928.704,408.9072,855.9562,431.84427,904.02515C442.5451,926.4508,441.6536,953.7661,453.8855,972.95776C465.0158,990.421,488.01117,1000.4,521.129,1008.5353L525.3813,1025.4983C529.7013,1031.2533,472.5754,1026.8527,444.64056,1019.1044C422.2912,1012.9055,413.9027,981.9579,407.54413,970.6116C400.30826,957.6997,399.43338,946.2328,406.18893,938.55774L423.29312,912.0536L423.29312,912.05493L423.29312,912.0536 Z"/> </g> <g style="fill:rgb(0,0,0); fill-opacity:1.0; stroke-linejoin: miter"> <path d="M413.42636,962.3429L413.655,962.31946L413.8837,962.29626L413.42636,962.3429"/> </g> <g style="fill:rgb(0,0,0); fill-opacity:0.21960784; stroke-linejoin: miter"> <path d="M403.02533,955.9851L418.78677,1000.8867L434.54813,1045.788Q436.5299,1040.7196,438.51154,1035.651L403.02533,955.9851"/> </g> <g style="fill:rgb(0,0,0); fill-opacity:0.3647059; stroke-linejoin: miter"> <path d="M621.0143,1096.8538L619.5086,1097.053Q617.12964,1097.1869,612.71454,1097.3088Q611.7796,1097.3773,594.88727,1097.6481Q579.94794,1097.8564,556.86346,1098.017Q533.61926,1098.1775,506.70618,1098.2532Q500.55115,1098.2853,464.27277,1098.3188Q449.44046,1098.3248,433.69086,1098.3097Q403.629,1098.2673,378.91742,1098.1523Q366.56165,1098.0948,355.54343,1098.0193Q349.19833,1097.9929,325.49835,1097.7517Q285.25763,1097.2539,292.07642,1096.7175Q295.07352,1096.4504,306.91464,1096.2246Q312.83524,1096.1118,320.9668,1096.0094Q323.78174,1095.9504,350.0743,1095.7275Q393.7704,1095.3984,456.07245,1095.3843Q487.22345,1095.3912,513.7231,1095.477Q521.0747,1095.4863,550.8559,1095.6501Q562.3613,1095.7227,572.704,1095.8147Q596.62573,1096.0541,598.7569,1096.1145Q605.78296,1096.2222,610.5981,1096.3401Q620.22815,1096.5762,621.0143,1096.8538"/> </g> </g> </svg>